<svg width="616" height="229" viewBox="0 0 616 229" fill="none" xmlns="http://www.w3.org/2000/svg">
<path d="M364.813 114.649C364.813 111.298 364.432 107.905 363.756 104.639C359.147 83.2613 339.906 67.7373 318.086 67.7373C296.223 67.7373 277.025 83.2613 272.415 104.639C271.696 107.905 271.358 111.255 271.358 114.649C271.358 118.042 271.696 121.393 272.415 124.659C277.067 146.036 296.265 161.56 318.086 161.56C330.137 161.56 341.428 157.021 350.139 148.793L337.58 136.238C332.21 141.116 325.359 143.788 318.086 143.788C306.161 143.788 295.589 136.62 291.148 125.507L290.387 123.598H364.01C364.517 120.629 364.813 117.618 364.813 114.649ZM290.345 105.741L291.106 103.833C295.546 92.7199 306.118 85.5517 318.043 85.5517C329.968 85.5517 340.54 92.7199 344.98 103.833L345.741 105.741H290.345Z" fill="#18B793"/>
<path d="M471.208 114.649C471.208 118.042 470.828 121.393 470.151 124.659C465.499 146.036 446.301 161.56 424.481 161.56C398.685 161.56 377.711 140.522 377.711 114.649C377.711 88.8177 398.685 67.7798 424.481 67.7798C436.49 67.7798 447.823 72.3182 456.534 80.5468L443.975 93.1441C438.647 88.2664 431.754 85.5942 424.481 85.5942C408.454 85.5942 395.471 98.6581 395.471 114.691C395.471 130.766 408.496 143.788 424.481 143.788C436.406 143.788 446.977 136.62 451.418 125.507L452.179 123.598H425.876V105.784H470.405C470.954 108.668 471.208 111.637 471.208 114.649Z" fill="#18B793"/>
<path d="M561.492 67.7373C535.696 67.7373 514.764 88.7753 514.764 114.606C514.764 140.479 535.739 161.517 561.492 161.517C587.287 161.517 608.261 140.479 608.261 114.606C608.261 88.7753 587.245 67.7373 561.492 67.7373ZM561.492 143.745C545.507 143.745 532.482 130.682 532.482 114.649C532.482 98.6156 545.507 85.5517 561.492 85.5517C577.519 85.5517 590.501 98.6156 590.501 114.649C590.501 130.682 577.476 143.745 561.492 143.745Z" fill="#18B793"/>
<path d="M501.824 69.3916H484.106V159.863H501.824V69.3916Z" fill="#18B793"/>
<path d="M225.138 109.898C222.728 53.1886 176.465 7.84671 119.885 6.65908C89.8607 6.02285 60.5555 18.1536 39.7501 39.9975C18.6487 62.0958 8.11918 91.1927 10.1067 121.859C13.6165 175.896 56.8765 219.16 110.751 222.468C113.034 222.595 115.275 222.68 117.517 222.68C137.138 222.68 156.21 217.421 172.998 207.241C180.44 202.745 185.346 195.152 186.403 186.5C187.46 177.805 184.5 169.237 178.326 163.044C169.192 153.882 155.025 152.186 143.946 158.845C136.038 163.638 126.904 166.14 117.643 166.183C117.601 166.183 117.601 166.183 117.559 166.183C103.35 166.183 90.1567 160.499 80.346 150.192C70.5353 139.843 65.5454 126.27 66.2643 111.976C67.5752 86.0604 88.8458 64.6407 114.683 63.241C129.019 62.4776 142.508 67.4401 152.827 77.2381C161.03 85.0001 166.316 94.9252 168.177 105.826L140.69 105.868C137.138 96.4946 128.131 89.8354 117.559 89.8354C103.9 89.8354 92.8208 100.991 92.8208 114.648C92.8208 128.306 103.942 139.461 117.559 139.461C128.131 139.461 137.18 132.76 140.69 123.343L177.649 123.259C182.47 123.259 186.36 119.314 186.36 114.479C186.318 98.9547 181.286 84.3638 171.983 72.3603L187.164 57.1332C199.216 71.8089 206.785 90.3444 207.673 110.576C208.308 125.295 205.517 139.461 199.385 152.652C197.355 157.021 199.258 162.238 203.614 164.274C207.969 166.31 213.171 164.401 215.2 160.033C222.558 144.339 225.899 127.458 225.138 109.898ZM113.753 45.6811C79.0774 47.5474 50.5757 76.2625 48.8419 111.043C47.8693 130.215 54.593 148.368 67.7444 162.238C80.8535 176.066 98.5719 183.658 117.601 183.658C117.643 183.658 117.686 183.658 117.728 183.658C130.203 183.616 142.382 180.222 153.038 173.818C157.267 171.273 162.595 171.951 166.063 175.387C168.431 177.762 169.53 180.986 169.149 184.294C168.769 187.603 166.908 190.444 164.075 192.141C148.386 201.6 130.372 206.011 111.892 204.866C66.7718 202.066 30.5315 165.886 27.6137 120.629C25.9645 94.9252 34.7602 70.5365 52.4363 52.0434C69.8587 33.7624 94.3854 23.5404 119.546 24.1342C140.479 24.5583 159.719 32.2355 174.858 44.748L159.677 59.9751C146.61 49.8378 130.583 44.7904 113.753 45.6811Z" fill="#18B793"/>
</svg>
